<svg width="225" height="83" viewBox="0 0 225 83" fill="none" xmlns="http://www.w3.org/2000/svg">
<rect x="49" width="131" height="83" fill="#EC4186"/>
<rect x="52" y="2" width="8" height="10" fill="#100316"/>
<rect x="52" y="70" width="8" height="10" fill="#100316"/>
<rect x="91" y="2" width="8" height="10" fill="#100316"/>
<rect x="91" y="70" width="8" height="10" fill="#100316"/>
<rect x="130" y="2" width="8" height="10" fill="#100316"/>
<rect x="130" y="70" width="8" height="10" fill="#100316"/>
<rect x="65" y="2" width="8" height="10" fill="#100316"/>
<rect x="65" y="70" width="8" height="10" fill="#100316"/>
<rect x="104" y="2" width="8" height="10" fill="#100316"/>
<rect x="104" y="70" width="8" height="10" fill="#100316"/>
<rect x="143" y="2" width="8" height="10" fill="#100316"/>
<rect x="143" y="70" width="8" height="10" fill="#100316"/>
<rect x="78" y="2" width="8" height="10" fill="#100316"/>
<rect x="78" y="70" width="8" height="10" fill="#100316"/>
<rect x="117" y="2" width="8" height="10" fill="#100316"/>
<rect x="117" y="70" width="8" height="10" fill="#100316"/>
<rect x="156" y="2" width="8" height="10" fill="#100316"/>
<rect x="156" y="70" width="8" height="10" fill="#100316"/>
<rect x="169" y="2" width="8" height="10" fill="#100316"/>
<rect x="169" y="70" width="8" height="10" fill="#100316"/>
<mask id="path-22-outside-1_21_786" maskUnits="userSpaceOnUse" x="0" y="18" width="226" height="38" fill="black">
<rect fill="white" y="18" width="226" height="38"/>
<path d="M25.3764 36.9844H19.777C19.6747 36.2599 19.4659 35.6165 19.1506 35.054C18.8352 34.483 18.4304 33.9972 17.9361 33.5966C17.4418 33.196 16.8707 32.8892 16.223 32.6761C15.5838 32.4631 14.8892 32.3565 14.1392 32.3565C12.7841 32.3565 11.6037 32.6932 10.598 33.3665C9.59233 34.0312 8.8125 35.0028 8.25852 36.2812C7.70455 37.5511 7.42756 39.0937 7.42756 40.9091C7.42756 42.7756 7.70455 44.3437 8.25852 45.6136C8.82102 46.8835 9.60511 47.8423 10.6108 48.4901C11.6165 49.1378 12.7798 49.4616 14.1009 49.4616C14.8423 49.4616 15.5284 49.3636 16.1591 49.1676C16.7983 48.9716 17.3651 48.6861 17.8594 48.3111C18.3537 47.9276 18.7628 47.4631 19.0866 46.9176C19.419 46.3722 19.6491 45.75 19.777 45.0511L25.3764 45.0767C25.2315 46.2784 24.8693 47.4375 24.2898 48.554C23.7188 49.6619 22.9474 50.6548 21.9759 51.5327C21.0128 52.402 19.8622 53.0923 18.5241 53.6037C17.1946 54.1065 15.6903 54.358 14.0114 54.358C11.6761 54.358 9.58807 53.8295 7.74716 52.7727C5.91477 51.7159 4.46591 50.1861 3.40057 48.1832C2.34375 46.1804 1.81534 43.7557 1.81534 40.9091C1.81534 38.054 2.35227 35.625 3.42614 33.6222C4.5 31.6193 5.95739 30.0937 7.7983 29.0455C9.6392 27.9886 11.7102 27.4602 14.0114 27.4602C15.5284 27.4602 16.9347 27.6733 18.2301 28.0994C19.5341 28.5256 20.6889 29.1477 21.6946 29.9659C22.7003 30.7756 23.5185 31.7685 24.1491 32.9446C24.7884 34.1207 25.1974 35.4673 25.3764 36.9844ZM34.8814 27.8182V54H29.3459V27.8182H34.8814ZM61.3349 27.8182V54H56.5536L45.163 37.5213H44.9712V54H39.4357V27.8182H44.2937L55.5948 44.2841H55.8249V27.8182H61.3349ZM65.9084 54V27.8182H83.5504V32.3821H71.4439V38.6207H82.6428V43.1847H71.4439V49.4361H83.6016V54H65.9084ZM72.8118 25.2869L75.522 19.4702H80.5589L76.6598 25.2869H72.8118ZM87.9513 54V27.8182H98.2809C100.267 27.8182 101.958 28.1974 103.356 28.956C104.754 29.706 105.819 30.75 106.552 32.0881C107.294 33.4176 107.664 34.9517 107.664 36.6903C107.664 38.429 107.289 39.9631 106.539 41.2926C105.789 42.6222 104.703 43.6577 103.279 44.3991C101.865 45.1406 100.152 45.5114 98.1403 45.5114H91.5565V41.0753H97.2454C98.3107 41.0753 99.1886 40.892 99.8789 40.5256C100.578 40.1506 101.098 39.6349 101.439 38.9787C101.788 38.3139 101.963 37.5511 101.963 36.6903C101.963 35.821 101.788 35.0625 101.439 34.4148C101.098 33.7585 100.578 33.2514 99.8789 32.8935C99.18 32.527 98.2937 32.3438 97.2198 32.3438H93.4869V54H87.9513ZM111.26 54V27.8182H116.795V38.6207H128.033V27.8182H133.555V54H128.033V43.1847H116.795V54H111.26ZM162.179 40.9091C162.179 43.7642 161.638 46.1932 160.555 48.196C159.482 50.1989 158.016 51.7287 156.158 52.7855C154.308 53.8338 152.229 54.358 149.919 54.358C147.592 54.358 145.504 53.8295 143.655 52.7727C141.805 51.7159 140.344 50.1861 139.27 48.1832C138.196 46.1804 137.659 43.7557 137.659 40.9091C137.659 38.054 138.196 35.625 139.27 33.6222C140.344 31.6193 141.805 30.0937 143.655 29.0455C145.504 27.9886 147.592 27.4602 149.919 27.4602C152.229 27.4602 154.308 27.9886 156.158 29.0455C158.016 30.0937 159.482 31.6193 160.555 33.6222C161.638 35.625 162.179 38.054 162.179 40.9091ZM156.567 40.9091C156.567 39.0597 156.29 37.5 155.736 36.2301C155.19 34.9602 154.419 33.9972 153.422 33.3409C152.425 32.6847 151.257 32.3565 149.919 32.3565C148.581 32.3565 147.413 32.6847 146.416 33.3409C145.419 33.9972 144.643 34.9602 144.089 36.2301C143.544 37.5 143.271 39.0597 143.271 40.9091C143.271 42.7585 143.544 44.3182 144.089 45.5881C144.643 46.858 145.419 47.821 146.416 48.4773C147.413 49.1335 148.581 49.4616 149.919 49.4616C151.257 49.4616 152.425 49.1335 153.422 48.4773C154.419 47.821 155.19 46.858 155.736 45.5881C156.29 44.3182 156.567 42.7585 156.567 40.9091ZM166.279 54V27.8182H176.609C178.586 27.8182 180.274 28.1719 181.672 28.8793C183.078 29.5781 184.147 30.571 184.88 31.858C185.622 33.1364 185.993 34.6406 185.993 36.3707C185.993 38.1094 185.618 39.6051 184.868 40.858C184.118 42.1023 183.031 43.0568 181.608 43.7216C180.193 44.3864 178.48 44.7188 176.468 44.7188H169.552V40.2699H175.574C176.63 40.2699 177.508 40.125 178.207 39.8352C178.906 39.5455 179.426 39.1108 179.767 38.5312C180.116 37.9517 180.291 37.2315 180.291 36.3707C180.291 35.5014 180.116 34.7685 179.767 34.1719C179.426 33.5753 178.902 33.1236 178.194 32.8168C177.495 32.5014 176.613 32.3438 175.548 32.3438H171.815V54H166.279ZM180.419 42.0852L186.926 54H180.815L174.449 42.0852H180.419ZM195.44 27.8182V54H189.904V27.8182H195.44ZM204.507 54H198.575L207.614 27.8182H214.747L223.773 54H217.841L211.283 33.8011H211.078L204.507 54ZM204.136 43.7088H218.148V48.0298H204.136V43.7088Z"/>
</mask>
<path d="M25.3764 36.9844H19.777C19.6747 36.2599 19.4659 35.6165 19.1506 35.054C18.8352 34.483 18.4304 33.9972 17.9361 33.5966C17.4418 33.196 16.8707 32.8892 16.223 32.6761C15.5838 32.4631 14.8892 32.3565 14.1392 32.3565C12.7841 32.3565 11.6037 32.6932 10.598 33.3665C9.59233 34.0312 8.8125 35.0028 8.25852 36.2812C7.70455 37.5511 7.42756 39.0937 7.42756 40.9091C7.42756 42.7756 7.70455 44.3437 8.25852 45.6136C8.82102 46.8835 9.60511 47.8423 10.6108 48.4901C11.6165 49.1378 12.7798 49.4616 14.1009 49.4616C14.8423 49.4616 15.5284 49.3636 16.1591 49.1676C16.7983 48.9716 17.3651 48.6861 17.8594 48.3111C18.3537 47.9276 18.7628 47.4631 19.0866 46.9176C19.419 46.3722 19.6491 45.75 19.777 45.0511L25.3764 45.0767C25.2315 46.2784 24.8693 47.4375 24.2898 48.554C23.7188 49.6619 22.9474 50.6548 21.9759 51.5327C21.0128 52.402 19.8622 53.0923 18.5241 53.6037C17.1946 54.1065 15.6903 54.358 14.0114 54.358C11.6761 54.358 9.58807 53.8295 7.74716 52.7727C5.91477 51.7159 4.46591 50.1861 3.40057 48.1832C2.34375 46.1804 1.81534 43.7557 1.81534 40.9091C1.81534 38.054 2.35227 35.625 3.42614 33.6222C4.5 31.6193 5.95739 30.0937 7.7983 29.0455C9.6392 27.9886 11.7102 27.4602 14.0114 27.4602C15.5284 27.4602 16.9347 27.6733 18.2301 28.0994C19.5341 28.5256 20.6889 29.1477 21.6946 29.9659C22.7003 30.7756 23.5185 31.7685 24.1491 32.9446C24.7884 34.1207 25.1974 35.4673 25.3764 36.9844ZM34.8814 27.8182V54H29.3459V27.8182H34.8814ZM61.3349 27.8182V54H56.5536L45.163 37.5213H44.9712V54H39.4357V27.8182H44.2937L55.5948 44.2841H55.8249V27.8182H61.3349ZM65.9084 54V27.8182H83.5504V32.3821H71.4439V38.6207H82.6428V43.1847H71.4439V49.4361H83.6016V54H65.9084ZM72.8118 25.2869L75.522 19.4702H80.5589L76.6598 25.2869H72.8118ZM87.9513 54V27.8182H98.2809C100.267 27.8182 101.958 28.1974 103.356 28.956C104.754 29.706 105.819 30.75 106.552 32.0881C107.294 33.4176 107.664 34.9517 107.664 36.6903C107.664 38.429 107.289 39.9631 106.539 41.2926C105.789 42.6222 104.703 43.6577 103.279 44.3991C101.865 45.1406 100.152 45.5114 98.1403 45.5114H91.5565V41.0753H97.2454C98.3107 41.0753 99.1886 40.892 99.8789 40.5256C100.578 40.1506 101.098 39.6349 101.439 38.9787C101.788 38.3139 101.963 37.5511 101.963 36.6903C101.963 35.821 101.788 35.0625 101.439 34.4148C101.098 33.7585 100.578 33.2514 99.8789 32.8935C99.18 32.527 98.2937 32.3438 97.2198 32.3438H93.4869V54H87.9513ZM111.26 54V27.8182H116.795V38.6207H128.033V27.8182H133.555V54H128.033V43.1847H116.795V54H111.26ZM162.179 40.9091C162.179 43.7642 161.638 46.1932 160.555 48.196C159.482 50.1989 158.016 51.7287 156.158 52.7855C154.308 53.8338 152.229 54.358 149.919 54.358C147.592 54.358 145.504 53.8295 143.655 52.7727C141.805 51.7159 140.344 50.1861 139.27 48.1832C138.196 46.1804 137.659 43.7557 137.659 40.9091C137.659 38.054 138.196 35.625 139.27 33.6222C140.344 31.6193 141.805 30.0937 143.655 29.0455C145.504 27.9886 147.592 27.4602 149.919 27.4602C152.229 27.4602 154.308 27.9886 156.158 29.0455C158.016 30.0937 159.482 31.6193 160.555 33.6222C161.638 35.625 162.179 38.054 162.179 40.9091ZM156.567 40.9091C156.567 39.0597 156.29 37.5 155.736 36.2301C155.19 34.9602 154.419 33.9972 153.422 33.3409C152.425 32.6847 151.257 32.3565 149.919 32.3565C148.581 32.3565 147.413 32.6847 146.416 33.3409C145.419 33.9972 144.643 34.9602 144.089 36.2301C143.544 37.5 143.271 39.0597 143.271 40.9091C143.271 42.7585 143.544 44.3182 144.089 45.5881C144.643 46.858 145.419 47.821 146.416 48.4773C147.413 49.1335 148.581 49.4616 149.919 49.4616C151.257 49.4616 152.425 49.1335 153.422 48.4773C154.419 47.821 155.19 46.858 155.736 45.5881C156.29 44.3182 156.567 42.7585 156.567 40.9091ZM166.279 54V27.8182H176.609C178.586 27.8182 180.274 28.1719 181.672 28.8793C183.078 29.5781 184.147 30.571 184.88 31.858C185.622 33.1364 185.993 34.6406 185.993 36.3707C185.993 38.1094 185.618 39.6051 184.868 40.858C184.118 42.1023 183.031 43.0568 181.608 43.7216C180.193 44.3864 178.48 44.7188 176.468 44.7188H169.552V40.2699H175.574C176.63 40.2699 177.508 40.125 178.207 39.8352C178.906 39.5455 179.426 39.1108 179.767 38.5312C180.116 37.9517 180.291 37.2315 180.291 36.3707C180.291 35.5014 180.116 34.7685 179.767 34.1719C179.426 33.5753 178.902 33.1236 178.194 32.8168C177.495 32.5014 176.613 32.3438 175.548 32.3438H171.815V54H166.279ZM180.419 42.0852L186.926 54H180.815L174.449 42.0852H180.419ZM195.44 27.8182V54H189.904V27.8182H195.44ZM204.507 54H198.575L207.614 27.8182H214.747L223.773 54H217.841L211.283 33.8011H211.078L204.507 54ZM204.136 43.7088H218.148V48.0298H204.136V43.7088Z" fill="#EC4186"/>
<path d="M25.3764 36.9844V37.9844H26.5013L26.3695 36.8672L25.3764 36.9844ZM19.777 36.9844L18.7868 37.1242L18.9082 37.9844H19.777V36.9844ZM19.1506 35.054L18.2752 35.5374L18.2783 35.543L19.1506 35.054ZM17.9361 33.5966L17.3065 34.3735L17.3065 34.3735L17.9361 33.5966ZM16.223 32.6761L15.9068 33.6248L15.9105 33.6261L16.223 32.6761ZM10.598 33.3665L11.1495 34.2007L11.1543 34.1974L10.598 33.3665ZM8.25852 36.2812L9.17511 36.6811L9.17608 36.6789L8.25852 36.2812ZM8.25852 45.6136L7.34193 46.0135L7.34421 46.0186L8.25852 45.6136ZM10.6108 48.4901L10.0693 49.3308L10.6108 48.4901ZM16.1591 49.1676L15.8659 48.2116L15.8623 48.2127L16.1591 49.1676ZM17.8594 48.3111L18.4638 49.1078L18.4724 49.1012L17.8594 48.3111ZM19.0866 46.9176L18.2327 46.3972L18.2268 46.4071L19.0866 46.9176ZM19.777 45.0511L19.7816 44.0511L18.944 44.0473L18.7933 44.8712L19.777 45.0511ZM25.3764 45.0767L26.3692 45.1964L26.5036 44.0818L25.381 44.0767L25.3764 45.0767ZM24.2898 48.554L23.4022 48.0933L23.4009 48.0959L24.2898 48.554ZM21.9759 51.5327L22.6459 52.275L22.6463 52.2747L21.9759 51.5327ZM18.5241 53.6037L18.8779 54.539L18.8811 54.5378L18.5241 53.6037ZM7.74716 52.7727L7.24755 53.639L7.24929 53.64L7.74716 52.7727ZM3.40057 48.1832L2.51614 48.6499L2.5177 48.6529L3.40057 48.1832ZM3.42614 33.6222L4.30745 34.0947L3.42614 33.6222ZM7.7983 29.0455L8.29314 29.9144L8.29616 29.9127L7.7983 29.0455ZM18.2301 28.0994L17.9176 29.0494L17.9195 29.05L18.2301 28.0994ZM21.6946 29.9659L21.0635 30.7416L21.0675 30.7448L21.6946 29.9659ZM24.1491 32.9446L23.2678 33.4172L23.2705 33.4221L24.1491 32.9446ZM25.3764 35.9844H19.777V37.9844H25.3764V35.9844ZM20.7672 36.8446C20.6499 36.0138 20.4064 35.2491 20.0229 34.565L18.2783 35.543C18.5254 35.9838 18.6995 36.5061 18.7868 37.1242L20.7672 36.8446ZM20.026 34.5706C19.65 33.8897 19.1626 33.3034 18.5657 32.8197L17.3065 34.3735C17.6982 34.6909 18.0205 35.0762 18.2752 35.5374L20.026 34.5706ZM18.5657 32.8197C17.9704 32.3373 17.2902 31.9745 16.5355 31.7262L15.9105 33.6261C16.4513 33.8039 16.9131 34.0547 17.3065 34.3735L18.5657 32.8197ZM16.5392 31.7275C15.7872 31.4768 14.9846 31.3565 14.1392 31.3565V33.3565C14.7938 33.3565 15.3804 33.4494 15.9068 33.6248L16.5392 31.7275ZM14.1392 31.3565C12.6106 31.3565 11.2313 31.7391 10.0417 32.5355L11.1543 34.1974C11.9761 33.6473 12.9576 33.3565 14.1392 33.3565V31.3565ZM10.0466 32.5323C8.85509 33.3199 7.95976 34.4557 7.34097 35.8836L9.17608 36.6789C9.66524 35.55 10.3296 34.7426 11.1494 34.2007L10.0466 32.5323ZM7.34194 35.8814C6.71872 37.31 6.42756 38.9969 6.42756 40.9091H8.42756C8.42756 39.1906 8.69038 37.7922 9.1751 36.6811L7.34194 35.8814ZM6.42756 40.9091C6.42756 42.8681 6.71739 44.5818 7.34194 46.0135L9.1751 45.2138C8.6917 44.1057 8.42756 42.6831 8.42756 40.9091H6.42756ZM7.34421 46.0186C7.97274 47.4376 8.87436 48.5611 10.0693 49.3308L11.1523 47.6493C10.3359 47.1235 9.6693 46.3294 9.17284 45.2086L7.34421 46.0186ZM10.0693 49.3308C11.2531 50.0932 12.6086 50.4616 14.1009 50.4616V48.4616C12.9511 48.4616 11.9799 48.1824 11.1523 47.6493L10.0693 49.3308ZM14.1009 50.4616C14.9308 50.4616 15.7181 50.3519 16.4559 50.1226L15.8623 48.2127C15.3387 48.3754 14.7539 48.4616 14.1009 48.4616V50.4616ZM16.4523 50.1237C17.195 49.8959 17.8689 49.5591 18.4638 49.1078L17.255 47.5144C16.8613 47.8131 16.4016 48.0473 15.8659 48.2116L16.4523 50.1237ZM18.4724 49.1012C19.0672 48.6397 19.5595 48.0799 19.9465 47.4282L18.2268 46.4071C17.966 46.8462 17.6402 47.2154 17.2464 47.521L18.4724 49.1012ZM19.9406 47.438C20.3435 46.7769 20.6133 46.0369 20.7607 45.2311L18.7933 44.8712C18.685 45.4631 18.4946 45.9675 18.2327 46.3972L19.9406 47.438ZM19.7724 46.0511L25.3719 46.0767L25.381 44.0767L19.7816 44.0511L19.7724 46.0511ZM24.3836 44.957C24.2536 46.035 23.9287 47.079 23.4022 48.0933L25.1773 49.0147C25.8099 47.796 26.2094 46.5218 26.3692 45.1964L24.3836 44.957ZM23.4009 48.0959C22.8878 49.0915 22.1923 49.9894 21.3055 50.7907L22.6463 52.2747C23.7026 51.3203 24.5497 50.2324 25.1787 49.0121L23.4009 48.0959ZM21.3058 50.7904C20.4434 51.5688 19.4019 52.1977 18.1672 52.6696L18.8811 54.5378C20.3225 53.987 21.5821 53.2352 22.6459 52.275L21.3058 50.7904ZM18.1704 52.6684C16.9723 53.1215 15.5909 53.358 14.0114 53.358V55.358C15.7898 55.358 17.4169 55.0916 18.8779 54.539L18.1704 52.6684ZM14.0114 53.358C11.8329 53.358 9.91958 52.8668 8.24503 51.9055L7.24929 53.64C9.25656 54.7923 11.5194 55.358 14.0114 55.358V53.358ZM8.24677 51.9065C6.58863 50.9502 5.26738 49.5634 4.28344 47.7136L2.5177 48.6529C3.66444 50.8087 5.24091 52.4817 7.24755 53.639L8.24677 51.9065ZM4.285 47.7166C3.32112 45.8899 2.81534 43.634 2.81534 40.9091H0.815341C0.815341 43.8774 1.36638 46.4709 2.51614 48.6499L4.285 47.7166ZM2.81534 40.9091C2.81534 38.1774 3.32898 35.9196 4.30745 34.0947L2.54482 33.1496C1.37557 35.3304 0.815341 37.9305 0.815341 40.9091H2.81534ZM4.30745 34.0947C5.29911 32.2452 6.62777 30.8628 8.29313 29.9144L7.30346 28.1765C5.287 29.3247 3.70089 30.9935 2.54482 33.1496L4.30745 34.0947ZM8.29616 29.9127C9.97295 28.9501 11.8698 28.4602 14.0114 28.4602V26.4602C11.5507 26.4602 9.30546 27.0272 7.30043 28.1782L8.29616 29.9127ZM14.0114 28.4602C15.4341 28.4602 16.7337 28.6599 17.9176 29.0494L18.5426 27.1495C17.1356 26.6867 15.6227 26.4602 14.0114 26.4602V28.4602ZM17.9195 29.05C19.1137 29.4402 20.1585 30.0053 21.0635 30.7416L22.3257 29.1902C21.2194 28.2901 19.9545 27.6109 18.5407 27.1489L17.9195 29.05ZM21.0675 30.7448C21.9652 31.4676 22.6983 32.3551 23.2679 33.4172L25.0304 32.472C24.3386 31.1818 23.4353 30.0835 22.3217 29.187L21.0675 30.7448ZM23.2705 33.4221C23.841 34.4719 24.2171 35.6931 24.3833 37.1015L26.3695 36.8672C26.1777 35.2415 25.7357 33.7696 25.0278 32.4671L23.2705 33.4221ZM34.8814 27.8182H35.8814V26.8182H34.8814V27.8182ZM34.8814 54V55H35.8814V54H34.8814ZM29.3459 54H28.3459V55H29.3459V54ZM29.3459 27.8182V26.8182H28.3459V27.8182H29.3459ZM33.8814 27.8182V54H35.8814V27.8182H33.8814ZM34.8814 53H29.3459V55H34.8814V53ZM30.3459 54V27.8182H28.3459V54H30.3459ZM29.3459 28.8182H34.8814V26.8182H29.3459V28.8182ZM61.3349 27.8182H62.3349V26.8182H61.3349V27.8182ZM61.3349 54V55H62.3349V54H61.3349ZM56.5536 54L55.731 54.5686L56.0292 55H56.5536V54ZM45.163 37.5213L45.9856 36.9527L45.6874 36.5213H45.163V37.5213ZM44.9712 37.5213V36.5213H43.9712V37.5213H44.9712ZM44.9712 54V55H45.9712V54H44.9712ZM39.4357 54H38.4357V55H39.4357V54ZM39.4357 27.8182V26.8182H38.4357V27.8182H39.4357ZM44.2937 27.8182L45.1182 27.2523L44.8202 26.8182H44.2937V27.8182ZM55.5948 44.2841L54.7703 44.85L55.0683 45.2841H55.5948V44.2841ZM55.8249 44.2841V45.2841H56.8249V44.2841H55.8249ZM55.8249 27.8182V26.8182H54.8249V27.8182H55.8249ZM60.3349 27.8182V54H62.3349V27.8182H60.3349ZM61.3349 53H56.5536V55H61.3349V53ZM57.3762 53.4314L45.9856 36.9527L44.3404 38.0899L55.731 54.5686L57.3762 53.4314ZM45.163 36.5213H44.9712V38.5213H45.163V36.5213ZM43.9712 37.5213V54H45.9712V37.5213H43.9712ZM44.9712 53H39.4357V55H44.9712V53ZM40.4357 54V27.8182H38.4357V54H40.4357ZM39.4357 28.8182H44.2937V26.8182H39.4357V28.8182ZM43.4692 28.3841L54.7703 44.85L56.4193 43.7182L45.1182 27.2523L43.4692 28.3841ZM55.5948 45.2841H55.8249V43.2841H55.5948V45.2841ZM56.8249 44.2841V27.8182H54.8249V44.2841H56.8249ZM55.8249 28.8182H61.3349V26.8182H55.8249V28.8182ZM65.9084 54H64.9084V55H65.9084V54ZM65.9084 27.8182V26.8182H64.9084V27.8182H65.9084ZM83.5504 27.8182H84.5504V26.8182H83.5504V27.8182ZM83.5504 32.3821V33.3821H84.5504V32.3821H83.5504ZM71.4439 32.3821V31.3821H70.4439V32.3821H71.4439ZM71.4439 38.6207H70.4439V39.6207H71.4439V38.6207ZM82.6428 38.6207H83.6428V37.6207H82.6428V38.6207ZM82.6428 43.1847V44.1847H83.6428V43.1847H82.6428ZM71.4439 43.1847V42.1847H70.4439V43.1847H71.4439ZM71.4439 49.4361H70.4439V50.4361H71.4439V49.4361ZM83.6016 49.4361H84.6016V48.4361H83.6016V49.4361ZM83.6016 54V55H84.6016V54H83.6016ZM72.8118 25.2869L71.9053 24.8646L71.2426 26.2869H72.8118V25.2869ZM75.522 19.4702V18.4702H74.8847L74.6156 19.0478L75.522 19.4702ZM80.559 19.4702L81.3896 20.027L82.4332 18.4702H80.559V19.4702ZM76.6598 25.2869V26.2869H77.1934L77.4904 25.8437L76.6598 25.2869ZM66.9084 54V27.8182H64.9084V54H66.9084ZM65.9084 28.8182H83.5504V26.8182H65.9084V28.8182ZM82.5504 27.8182V32.3821H84.5504V27.8182H82.5504ZM83.5504 31.3821H71.4439V33.3821H83.5504V31.3821ZM70.4439 32.3821V38.6207H72.4439V32.3821H70.4439ZM71.4439 39.6207H82.6428V37.6207H71.4439V39.6207ZM81.6428 38.6207V43.1847H83.6428V38.6207H81.6428ZM82.6428 42.1847H71.4439V44.1847H82.6428V42.1847ZM70.4439 43.1847V49.4361H72.4439V43.1847H70.4439ZM71.4439 50.4361H83.6016V48.4361H71.4439V50.4361ZM82.6016 49.4361V54H84.6016V49.4361H82.6016ZM83.6016 53H65.9084V55H83.6016V53ZM73.7182 25.7093L76.4285 19.8925L74.6156 19.0478L71.9053 24.8646L73.7182 25.7093ZM75.522 20.4702H80.559V18.4702H75.522V20.4702ZM79.7283 18.9134L75.8292 24.7301L77.4904 25.8437L81.3896 20.027L79.7283 18.9134ZM76.6598 24.2869H72.8118V26.2869H76.6598V24.2869ZM87.9513 54H86.9513V55H87.9513V54ZM87.9513 27.8182V26.8182H86.9513V27.8182H87.9513ZM103.356 28.956L102.879 29.8349L102.883 29.8371L103.356 28.956ZM106.552 32.0881L105.675 32.5685L105.679 32.5751L106.552 32.0881ZM103.279 44.3991L102.817 43.5123L102.815 43.5134L103.279 44.3991ZM91.5565 45.5114H90.5565V46.5114H91.5565V45.5114ZM91.5565 41.0753V40.0753H90.5565V41.0753H91.5565ZM99.8789 40.5256L100.348 41.4088L100.352 41.4067L99.8789 40.5256ZM101.439 38.9787L100.553 38.5134L100.551 38.5177L101.439 38.9787ZM101.439 34.4148L100.551 34.8758L100.555 34.8827L100.558 34.8896L101.439 34.4148ZM99.8789 32.8935L99.4145 33.7791L99.423 33.7835L99.8789 32.8935ZM93.4869 32.3438V31.3438H92.4869V32.3438H93.4869ZM93.4869 54V55H94.4869V54H93.4869ZM88.9513 54V27.8182H86.9513V54H88.9513ZM87.9513 28.8182H98.2809V26.8182H87.9513V28.8182ZM98.2809 28.8182C100.141 28.8182 101.66 29.1732 102.879 29.8349L103.833 28.077C102.257 27.2217 100.393 26.8182 98.2809 26.8182V28.8182ZM102.883 29.8371C104.118 30.4994 105.039 31.4073 105.675 32.5685L107.429 31.6076C106.599 30.0927 105.39 28.9126 103.829 28.0748L102.883 29.8371ZM105.679 32.5751C106.326 33.7357 106.664 35.0977 106.664 36.6903H108.664C108.664 34.8058 108.261 33.0995 107.426 31.601L105.679 32.5751ZM106.664 36.6903C106.664 38.2811 106.323 39.6415 105.668 40.8013L107.41 41.7839C108.256 40.2846 108.664 38.5768 108.664 36.6903H106.664ZM105.668 40.8013C105.019 41.9533 104.078 42.8554 102.817 43.5123L103.741 45.286C105.327 44.4599 106.56 43.291 107.41 41.7839L105.668 40.8013ZM102.815 43.5134C101.576 44.1629 100.031 44.5114 98.1403 44.5114V46.5114C100.272 46.5114 102.153 46.1184 103.744 45.2849L102.815 43.5134ZM98.1403 44.5114H91.5565V46.5114H98.1403V44.5114ZM92.5565 45.5114V41.0753H90.5565V45.5114H92.5565ZM91.5565 42.0753H97.2454V40.0753H91.5565V42.0753ZM97.2454 42.0753C98.4177 42.0753 99.4702 41.8747 100.348 41.4088L99.41 39.6423C98.9069 39.9094 98.2038 40.0753 97.2454 40.0753V42.0753ZM100.352 41.4067C101.214 40.9438 101.885 40.2877 102.326 39.4397L100.551 38.5177C100.31 38.9822 99.9411 39.3573 99.4061 39.6444L100.352 41.4067ZM102.324 39.444C102.759 38.616 102.963 37.6894 102.963 36.6903H100.963C100.963 37.4129 100.817 38.0119 100.553 38.5134L102.324 39.444ZM102.963 36.6903C102.963 35.6853 102.76 34.7579 102.319 33.94L100.558 34.8896C100.816 35.3671 100.963 35.9567 100.963 36.6903H102.963ZM102.326 33.9538C101.883 33.1014 101.206 32.4499 100.335 32.0034L99.423 33.7835C99.9491 34.0529 100.312 34.4156 100.551 34.8758L102.326 33.9538ZM100.343 32.0078C99.4589 31.5441 98.3999 31.3438 97.2198 31.3438V33.3438C98.1875 33.3438 98.9012 33.5099 99.4145 33.7791L100.343 32.0078ZM97.2198 31.3438H93.4869V33.3438H97.2198V31.3438ZM92.4869 32.3438V54H94.4869V32.3438H92.4869ZM93.4869 53H87.9513V55H93.4869V53ZM111.26 54H110.26V55H111.26V54ZM111.26 27.8182V26.8182H110.26V27.8182H111.26ZM116.795 27.8182H117.795V26.8182H116.795V27.8182ZM116.795 38.6207H115.795V39.6207H116.795V38.6207ZM128.033 38.6207V39.6207H129.033V38.6207H128.033ZM128.033 27.8182V26.8182H127.033V27.8182H128.033ZM133.555 27.8182H134.555V26.8182H133.555V27.8182ZM133.555 54V55H134.555V54H133.555ZM128.033 54H127.033V55H128.033V54ZM128.033 43.1847H129.033V42.1847H128.033V43.1847ZM116.795 43.1847V42.1847H115.795V43.1847H116.795ZM116.795 54V55H117.795V54H116.795ZM112.26 54V27.8182H110.26V54H112.26ZM111.26 28.8182H116.795V26.8182H111.26V28.8182ZM115.795 27.8182V38.6207H117.795V27.8182H115.795ZM116.795 39.6207H128.033V37.6207H116.795V39.6207ZM129.033 38.6207V27.8182H127.033V38.6207H129.033ZM128.033 28.8182H133.555V26.8182H128.033V28.8182ZM132.555 27.8182V54H134.555V27.8182H132.555ZM133.555 53H128.033V55H133.555V53ZM129.033 54V43.1847H127.033V54H129.033ZM128.033 42.1847H116.795V44.1847H128.033V42.1847ZM115.795 43.1847V54H117.795V43.1847H115.795ZM116.795 53H111.26V55H116.795V53ZM160.555 48.196L159.676 47.7206L159.674 47.7235L160.555 48.196ZM156.158 52.7855L156.651 53.6555L156.652 53.6547L156.158 52.7855ZM143.655 52.7727L144.151 51.9045L143.655 52.7727ZM139.27 48.1832L138.389 48.6558L139.27 48.1832ZM139.27 33.6222L140.151 34.0947L139.27 33.6222ZM143.655 29.0455L144.148 29.9154L144.151 29.9137L143.655 29.0455ZM156.158 29.0455L155.662 29.9137L155.666 29.9164L156.158 29.0455ZM160.555 33.6222L159.674 34.0947L159.676 34.0976L160.555 33.6222ZM155.736 36.2301L154.817 36.6248L154.819 36.63L155.736 36.2301ZM153.422 33.3409L152.872 34.1762L153.422 33.3409ZM146.416 33.3409L146.966 34.1762L146.416 33.3409ZM144.089 36.2301L143.173 35.8303L143.171 35.8354L144.089 36.2301ZM144.089 45.5881L143.171 45.9827L143.173 45.9879L144.089 45.5881ZM146.416 48.4773L146.966 47.6419L146.416 48.4773ZM153.422 48.4773L152.872 47.6419L153.422 48.4773ZM155.736 45.5881L154.819 45.1882L154.817 45.1934L155.736 45.5881ZM161.179 40.9091C161.179 43.6396 160.662 45.8963 159.676 47.7206L161.435 48.6715C162.614 46.49 163.179 43.8888 163.179 40.9091H161.179ZM159.674 47.7235C158.683 49.5713 157.347 50.9586 155.663 51.9163L156.652 53.6547C158.684 52.4988 160.28 50.8265 161.437 48.6686L159.674 47.7235ZM155.665 51.9155C153.978 52.8713 152.071 53.358 149.919 53.358V55.358C152.386 55.358 154.638 54.7963 156.651 53.6555L155.665 51.9155ZM149.919 53.358C147.75 53.358 145.836 52.8671 144.151 51.9045L143.159 53.641C145.173 54.792 147.435 55.358 149.919 55.358V53.358ZM144.151 51.9045C142.476 50.9471 141.143 49.5597 140.151 47.7107L138.389 48.6558C139.545 50.8125 141.135 52.4847 143.159 53.641L144.151 51.9045ZM140.151 47.7107C139.173 45.8854 138.659 43.6317 138.659 40.9091H136.659C136.659 43.8797 137.22 46.4754 138.389 48.6558L140.151 47.7107ZM138.659 40.9091C138.659 38.1774 139.173 35.9196 140.151 34.0947L138.389 33.1496C137.219 35.3304 136.659 37.9305 136.659 40.9091H138.659ZM140.151 34.0947C141.142 32.2463 142.474 30.8641 144.148 29.9154L143.162 28.1755C141.136 29.3234 139.545 30.9923 138.389 33.1496L140.151 34.0947ZM144.151 29.9137C145.836 28.9511 147.75 28.4602 149.919 28.4602V26.4602C147.435 26.4602 145.173 27.0262 143.159 28.1772L144.151 29.9137ZM149.919 28.4602C152.07 28.4602 153.976 28.9504 155.662 29.9137L156.654 28.1772C154.641 27.0268 152.388 26.4602 149.919 26.4602V28.4602ZM155.666 29.9164C157.348 30.8654 158.684 32.2475 159.674 34.0947L161.437 33.1496C160.279 30.9911 158.683 29.3221 156.649 28.1745L155.666 29.9164ZM159.676 34.0976C160.662 35.9219 161.179 38.1786 161.179 40.9091H163.179C163.179 37.9294 162.614 35.3281 161.435 33.1467L159.676 34.0976ZM157.567 40.9091C157.567 38.9657 157.276 37.2609 156.652 35.8303L154.819 36.63C155.303 37.7391 155.567 39.1536 155.567 40.9091H157.567ZM156.655 35.8354C156.044 34.4148 155.157 33.2856 153.972 32.5056L152.872 34.1762C153.681 34.7087 154.336 35.5057 154.817 36.6248L156.655 35.8354ZM153.972 32.5056C152.792 31.7292 151.428 31.3565 149.919 31.3565V33.3565C151.086 33.3565 152.057 33.6401 152.872 34.1762L153.972 32.5056ZM149.919 31.3565C148.41 31.3565 147.046 31.7292 145.866 32.5056L146.966 34.1762C147.781 33.6401 148.752 33.3565 149.919 33.3565V31.3565ZM145.866 32.5056C144.683 33.2846 143.792 34.4119 143.173 35.8303L145.006 36.63C145.495 35.5085 146.155 34.7097 146.966 34.1762L145.866 32.5056ZM143.171 35.8354C142.557 37.2645 142.271 38.9674 142.271 40.9091H144.271C144.271 39.152 144.531 37.7355 145.008 36.6248L143.171 35.8354ZM142.271 40.9091C142.271 42.8508 142.557 44.5537 143.171 45.9827L145.008 45.1934C144.531 44.0827 144.271 42.6662 144.271 40.9091H142.271ZM143.173 45.9879C143.792 47.4063 144.683 48.5336 145.866 49.3126L146.966 47.6419C146.155 47.1085 145.495 46.3096 145.006 45.1882L143.173 45.9879ZM145.866 49.3126C147.046 50.089 148.41 50.4616 149.919 50.4616V48.4616C148.752 48.4616 147.781 48.1781 146.966 47.6419L145.866 49.3126ZM149.919 50.4616C151.428 50.4616 152.792 50.089 153.972 49.3126L152.872 47.6419C152.057 48.1781 151.086 48.4616 149.919 48.4616V50.4616ZM153.972 49.3126C155.157 48.5326 156.044 47.4034 156.655 45.9827L154.817 45.1934C154.336 46.3125 153.681 47.1095 152.872 47.6419L153.972 49.3126ZM156.652 45.9879C157.276 44.5572 157.567 42.8525 157.567 40.9091H155.567C155.567 42.6646 155.303 44.0791 154.819 45.1882L156.652 45.9879ZM166.279 54H165.279V55H166.279V54ZM166.279 27.8182V26.8182H165.279V27.8182H166.279ZM181.672 28.8793L181.22 29.7715L181.226 29.7748L181.672 28.8793ZM184.88 31.858L184.011 32.3529L184.015 32.3597L184.88 31.858ZM184.868 40.858L185.724 41.3742L185.726 41.3716L184.868 40.858ZM181.608 43.7216L181.184 42.8155L181.182 42.8165L181.608 43.7216ZM169.552 44.7188H168.552V45.7188H169.552V44.7188ZM169.552 40.2699V39.2699H168.552V40.2699H169.552ZM178.207 39.8352L178.59 40.759L178.207 39.8352ZM179.767 38.5312L178.91 38.0149L178.905 38.0242L179.767 38.5312ZM179.767 34.1719L178.898 34.668L178.904 34.6773L179.767 34.1719ZM178.194 32.8168L177.783 33.7283L177.79 33.7313L177.796 33.7342L178.194 32.8168ZM171.815 32.3438V31.3438H170.815V32.3438H171.815ZM171.815 54V55H172.815V54H171.815ZM180.419 42.0852L181.296 41.6059L181.012 41.0852H180.419V42.0852ZM186.926 54V55H188.611L187.803 53.5207L186.926 54ZM180.815 54L179.933 54.4713L180.216 55H180.815V54ZM174.449 42.0852V41.0852H172.78L173.567 42.5565L174.449 42.0852ZM167.279 54V27.8182H165.279V54H167.279ZM166.279 28.8182H176.609V26.8182H166.279V28.8182ZM176.609 28.8182C178.469 28.8182 179.994 29.1511 181.22 29.7715L182.123 27.987C180.554 27.1927 178.703 26.8182 176.609 26.8182V28.8182ZM181.226 29.7748C182.466 30.3908 183.383 31.2493 184.011 32.3529L185.749 31.3631C184.912 29.8928 183.689 28.7654 182.117 27.9838L181.226 29.7748ZM184.015 32.3597C184.654 33.4614 184.993 34.7865 184.993 36.3707H186.993C186.993 34.4948 186.589 32.8113 185.745 31.3562L184.015 32.3597ZM184.993 36.3707C184.993 37.9632 184.65 39.274 184.01 40.3443L185.726 41.3716C186.585 39.9362 186.993 38.2556 186.993 36.3707H184.993ZM184.011 40.3417C183.372 41.4021 182.443 42.2277 181.184 42.8155L182.031 44.6276C183.619 43.886 184.863 42.8025 185.724 41.3742L184.011 40.3417ZM181.182 42.8165C179.933 43.4035 178.373 43.7188 176.468 43.7188V45.7188C178.586 45.7188 180.453 45.3692 182.033 44.6267L181.182 42.8165ZM176.468 43.7188H169.552V45.7188H176.468V43.7188ZM170.552 44.7188V40.2699H168.552V44.7188H170.552ZM169.552 41.2699H175.574V39.2699H169.552V41.2699ZM175.574 41.2699C176.713 41.2699 177.732 41.1148 178.59 40.759L177.824 38.9115C177.285 39.1352 176.547 39.2699 175.574 39.2699V41.2699ZM178.59 40.759C179.463 40.3969 180.164 39.8282 180.629 39.0383L178.905 38.0242C178.688 38.3933 178.349 38.694 177.824 38.9115L178.59 40.759ZM180.623 39.0476C181.089 38.2751 181.291 37.3647 181.291 36.3707H179.291C179.291 37.0984 179.143 37.6283 178.91 38.0149L180.623 39.0476ZM181.291 36.3707C181.291 35.3689 181.089 34.4511 180.63 33.6665L178.904 34.6773C179.143 35.0858 179.291 35.6339 179.291 36.3707H181.291ZM180.635 33.6757C180.174 32.8689 179.472 32.2811 178.592 31.8993L177.796 33.7342C178.331 33.9661 178.678 34.2816 178.898 34.668L180.635 33.6757ZM178.606 31.9053C177.737 31.5135 176.703 31.3438 175.548 31.3438V33.3438C176.523 33.3438 177.253 33.4893 177.783 33.7283L178.606 31.9053ZM175.548 31.3438H171.815V33.3438H175.548V31.3438ZM170.815 32.3438V54H172.815V32.3438H170.815ZM171.815 53H166.279V55H171.815V53ZM179.541 42.5645L186.048 54.4793L187.803 53.5207L181.296 41.6059L179.541 42.5645ZM186.926 53H180.815V55H186.926V53ZM181.697 53.5287L175.33 41.614L173.567 42.5565L179.933 54.4713L181.697 53.5287ZM174.449 43.0852H180.419V41.0852H174.449V43.0852ZM195.44 27.8182H196.44V26.8182H195.44V27.8182ZM195.44 54V55H196.44V54H195.44ZM189.904 54H188.904V55H189.904V54ZM189.904 27.8182V26.8182H188.904V27.8182H189.904ZM194.44 27.8182V54H196.44V27.8182H194.44ZM195.44 53H189.904V55H195.44V53ZM190.904 54V27.8182H188.904V54H190.904ZM189.904 28.8182H195.44V26.8182H189.904V28.8182ZM204.507 54V55H205.233L205.458 54.3094L204.507 54ZM198.575 54L197.63 53.6737L197.172 55H198.575V54ZM207.614 27.8182V26.8182H206.901L206.668 27.4919L207.614 27.8182ZM214.747 27.8182L215.693 27.4923L215.46 26.8182H214.747V27.8182ZM223.773 54V55H225.175L224.718 53.6741L223.773 54ZM217.841 54L216.89 54.3088L217.114 55H217.841V54ZM211.283 33.8011L212.234 33.4923L212.009 32.8011H211.283V33.8011ZM211.078 33.8011V32.8011H210.352L210.127 33.4918L211.078 33.8011ZM204.136 43.7088V42.7088H203.136V43.7088H204.136ZM218.148 43.7088H219.148V42.7088H218.148V43.7088ZM218.148 48.0298V49.0298H219.148V48.0298H218.148ZM204.136 48.0298H203.136V49.0298H204.136V48.0298ZM204.507 53H198.575V55H204.507V53ZM199.521 54.3263L208.559 28.1445L206.668 27.4919L197.63 53.6737L199.521 54.3263ZM207.614 28.8182H214.747V26.8182H207.614V28.8182ZM213.802 28.1441L222.827 54.3259L224.718 53.6741L215.693 27.4923L213.802 28.1441ZM223.773 53H217.841V55H223.773V53ZM218.792 53.6912L212.234 33.4923L210.332 34.1099L216.89 54.3088L218.792 53.6912ZM211.283 32.8011H211.078V34.8011H211.283V32.8011ZM210.127 33.4918L203.556 53.6906L205.458 54.3094L212.029 34.1105L210.127 33.4918ZM204.136 44.7088H218.148V42.7088H204.136V44.7088ZM217.148 43.7088V48.0298H219.148V43.7088H217.148ZM218.148 47.0298H204.136V49.0298H218.148V47.0298ZM205.136 48.0298V43.7088H203.136V48.0298H205.136Z" fill="white" mask="url(#path-22-outside-1_21_786)"/>
</svg>
