<svg width="166" height="36" viewBox="0 0 166 36" fill="none" xmlns="http://www.w3.org/2000/svg">
<path d="M31.3285 2.02009C25.3719 1.63825 22.3616 6.79321 21.601 9.41843C18.8389 4.04866 15.4763 2.02009 10.9128 2.02009C6.34932 2.02009 2.69509 5.03195 1.73592 8.65169C0.543241 13.1526 0.608228 17.933 3.37498 22.1348C5.6241 25.5506 16.1569 31.0566 21.601 34C27.1653 31.4146 37.6639 26.1391 40.1625 21.7753C42.53 17.6404 42.4969 10.9888 40.7089 7.75281C38.9208 4.51685 37.2851 2.40194 31.3285 2.02009Z" fill="#EC4186" stroke="#EC4186"/>
<path d="M57.7443 3.36364V15H55.6193L50.5568 7.67614H50.4716V15H48.0114V3.36364H50.1705L55.1932 10.6818H55.2955V3.36364H57.7443ZM70.4702 9.18182C70.4702 10.4508 70.2296 11.5303 69.7486 12.4205C69.2713 13.3106 68.6198 13.9905 67.794 14.4602C66.9721 14.9261 66.0478 15.1591 65.0213 15.1591C63.9872 15.1591 63.0592 14.9242 62.2372 14.4545C61.4152 13.9848 60.7656 13.3049 60.2884 12.4148C59.8111 11.5246 59.5724 10.447 59.5724 9.18182C59.5724 7.91288 59.8111 6.83333 60.2884 5.94318C60.7656 5.05303 61.4152 4.375 62.2372 3.90909C63.0592 3.43939 63.9872 3.20455 65.0213 3.20455C66.0478 3.20455 66.9721 3.43939 67.794 3.90909C68.6198 4.375 69.2713 5.05303 69.7486 5.94318C70.2296 6.83333 70.4702 7.91288 70.4702 9.18182ZM67.9759 9.18182C67.9759 8.35985 67.8527 7.66667 67.6065 7.10227C67.3641 6.53788 67.0213 6.10985 66.5781 5.81818C66.1349 5.52652 65.616 5.38068 65.0213 5.38068C64.4266 5.38068 63.9077 5.52652 63.4645 5.81818C63.0213 6.10985 62.6766 6.53788 62.4304 7.10227C62.188 7.66667 62.0668 8.35985 62.0668 9.18182C62.0668 10.0038 62.188 10.697 62.4304 11.2614C62.6766 11.8258 63.0213 12.2538 63.4645 12.5455C63.9077 12.8371 64.4266 12.983 65.0213 12.983C65.616 12.983 66.1349 12.8371 66.5781 12.5455C67.0213 12.2538 67.3641 11.8258 67.6065 11.2614C67.8527 10.697 67.9759 10.0038 67.9759 9.18182ZM71.3182 5.39205V3.36364H80.875V5.39205H77.3125V15H74.8807V5.39205H71.3182ZM82.4489 15V3.36364H87.0398C87.9186 3.36364 88.6686 3.52083 89.2898 3.83523C89.9148 4.14583 90.3902 4.58712 90.7159 5.15909C91.0455 5.72727 91.2102 6.39583 91.2102 7.16477C91.2102 7.9375 91.0436 8.60227 90.7102 9.15909C90.3769 9.71212 89.8939 10.1364 89.2614 10.4318C88.6326 10.7273 87.8712 10.875 86.9773 10.875H83.9034V8.89773H86.5795C87.0492 8.89773 87.4394 8.83333 87.75 8.70455C88.0606 8.57576 88.2917 8.38258 88.4432 8.125C88.5985 7.86742 88.6761 7.54735 88.6761 7.16477C88.6761 6.77841 88.5985 6.45265 88.4432 6.1875C88.2917 5.92235 88.0587 5.72159 87.7443 5.58523C87.4337 5.44508 87.0417 5.375 86.5682 5.375H84.9091V15H82.4489ZM88.733 9.70455L91.625 15H88.9091L86.0795 9.70455H88.733ZM92.9489 15V3.36364H100.79V5.39205H95.4091V8.16477H100.386V10.1932H95.4091V12.9716H100.812V15H92.9489ZM116.716 7.4375H114.227C114.182 7.11553 114.089 6.82955 113.949 6.57955C113.809 6.32576 113.629 6.10985 113.409 5.93182C113.189 5.75379 112.936 5.61742 112.648 5.52273C112.364 5.42803 112.055 5.38068 111.722 5.38068C111.119 5.38068 110.595 5.5303 110.148 5.82955C109.701 6.125 109.354 6.55682 109.108 7.125C108.862 7.68939 108.739 8.375 108.739 9.18182C108.739 10.0114 108.862 10.7083 109.108 11.2727C109.358 11.8371 109.706 12.2633 110.153 12.5511C110.6 12.839 111.117 12.983 111.705 12.983C112.034 12.983 112.339 12.9394 112.619 12.8523C112.903 12.7652 113.155 12.6383 113.375 12.4716C113.595 12.3011 113.777 12.0947 113.92 11.8523C114.068 11.6098 114.17 11.3333 114.227 11.0227L116.716 11.0341C116.652 11.5682 116.491 12.0833 116.233 12.5795C115.979 13.072 115.636 13.5133 115.205 13.9034C114.777 14.2898 114.265 14.5966 113.67 14.8239C113.08 15.0473 112.411 15.1591 111.665 15.1591C110.627 15.1591 109.699 14.9242 108.881 14.4545C108.066 13.9848 107.422 13.3049 106.949 12.4148C106.479 11.5246 106.244 10.447 106.244 9.18182C106.244 7.91288 106.483 6.83333 106.96 5.94318C107.438 5.05303 108.085 4.375 108.903 3.90909C109.722 3.43939 110.642 3.20455 111.665 3.20455C112.339 3.20455 112.964 3.29924 113.54 3.48864C114.119 3.67803 114.633 3.95455 115.08 4.31818C115.527 4.67803 115.89 5.11932 116.17 5.64205C116.455 6.16477 116.636 6.76326 116.716 7.4375ZM129.173 9.18182C129.173 10.4508 128.933 11.5303 128.452 12.4205C127.974 13.3106 127.323 13.9905 126.497 14.4602C125.675 14.9261 124.751 15.1591 123.724 15.1591C122.69 15.1591 121.762 14.9242 120.94 14.4545C120.118 13.9848 119.469 13.3049 118.991 12.4148C118.514 11.5246 118.276 10.447 118.276 9.18182C118.276 7.91288 118.514 6.83333 118.991 5.94318C119.469 5.05303 120.118 4.375 120.94 3.90909C121.762 3.43939 122.69 3.20455 123.724 3.20455C124.751 3.20455 125.675 3.43939 126.497 3.90909C127.323 4.375 127.974 5.05303 128.452 5.94318C128.933 6.83333 129.173 7.91288 129.173 9.18182ZM126.679 9.18182C126.679 8.35985 126.556 7.66667 126.31 7.10227C126.067 6.53788 125.724 6.10985 125.281 5.81818C124.838 5.52652 124.319 5.38068 123.724 5.38068C123.13 5.38068 122.611 5.52652 122.168 5.81818C121.724 6.10985 121.38 6.53788 121.134 7.10227C120.891 7.66667 120.77 8.35985 120.77 9.18182C120.77 10.0038 120.891 10.697 121.134 11.2614C121.38 11.8258 121.724 12.2538 122.168 12.5455C122.611 12.8371 123.13 12.983 123.724 12.983C124.319 12.983 124.838 12.8371 125.281 12.5455C125.724 12.2538 126.067 11.8258 126.31 11.2614C126.556 10.697 126.679 10.0038 126.679 9.18182ZM138.183 3.36364H140.643V10.9205C140.643 11.7689 140.441 12.5114 140.036 13.1477C139.634 13.7841 139.071 14.2803 138.348 14.6364C137.625 14.9886 136.782 15.1648 135.82 15.1648C134.854 15.1648 134.009 14.9886 133.286 14.6364C132.562 14.2803 132 13.7841 131.598 13.1477C131.196 12.5114 130.996 11.7689 130.996 10.9205V3.36364H133.456V10.7102C133.456 11.1534 133.553 11.5473 133.746 11.892C133.943 12.2367 134.219 12.5076 134.575 12.7045C134.931 12.9015 135.346 13 135.82 13C136.297 13 136.712 12.9015 137.064 12.7045C137.42 12.5076 137.695 12.2367 137.888 11.892C138.085 11.5473 138.183 11.1534 138.183 10.7102V3.36364ZM142.668 15V3.36364H147.259C148.141 3.36364 148.893 3.5322 149.514 3.86932C150.135 4.20265 150.609 4.66667 150.935 5.26136C151.264 5.85227 151.429 6.53409 151.429 7.30682C151.429 8.07955 151.262 8.76136 150.929 9.35227C150.596 9.94318 150.113 10.4034 149.48 10.733C148.851 11.0625 148.09 11.2273 147.196 11.2273H144.27V9.25568H146.798C147.272 9.25568 147.662 9.17424 147.969 9.01136C148.279 8.8447 148.51 8.61553 148.662 8.32386C148.817 8.02841 148.895 7.68939 148.895 7.30682C148.895 6.92045 148.817 6.58333 148.662 6.29545C148.51 6.00379 148.279 5.77841 147.969 5.61932C147.658 5.45644 147.264 5.375 146.787 5.375H145.128V15H142.668ZM52.1364 33H48.0114V21.3636H52.1705C53.3409 21.3636 54.3485 21.5966 55.1932 22.0625C56.0379 22.5246 56.6875 23.1894 57.142 24.0568C57.6004 24.9242 57.8295 25.9621 57.8295 27.1705C57.8295 28.3826 57.6004 29.4242 57.142 30.2955C56.6875 31.1667 56.0341 31.8352 55.1818 32.3011C54.3333 32.767 53.3182 33 52.1364 33ZM50.4716 30.892H52.0341C52.7614 30.892 53.3731 30.7633 53.8693 30.5057C54.3693 30.2443 54.7443 29.8409 54.9943 29.2955C55.2481 28.7462 55.375 28.0379 55.375 27.1705C55.375 26.3106 55.2481 25.608 54.9943 25.0625C54.7443 24.517 54.3712 24.1155 53.875 23.858C53.3788 23.6004 52.767 23.4716 52.0398 23.4716H50.4716V30.892ZM59.652 33V21.3636H67.4929V23.392H62.1122V26.1648H67.0895V28.1932H62.1122V30.9716H67.5156V33H59.652ZM83.419 25.4375H80.9304C80.8849 25.1155 80.7921 24.8295 80.652 24.5795C80.5118 24.3258 80.3319 24.1098 80.1122 23.9318C79.8925 23.7538 79.6387 23.6174 79.3509 23.5227C79.0668 23.428 78.758 23.3807 78.4247 23.3807C77.8224 23.3807 77.2978 23.5303 76.8509 23.8295C76.4039 24.125 76.0573 24.5568 75.8111 25.125C75.5649 25.6894 75.4418 26.375 75.4418 27.1818C75.4418 28.0114 75.5649 28.7083 75.8111 29.2727C76.0611 29.8371 76.4096 30.2633 76.8565 30.5511C77.3035 30.839 77.8205 30.983 78.4077 30.983C78.7372 30.983 79.0421 30.9394 79.3224 30.8523C79.6065 30.7652 79.8584 30.6383 80.0781 30.4716C80.2978 30.3011 80.4796 30.0947 80.6236 29.8523C80.7713 29.6098 80.8736 29.3333 80.9304 29.0227L83.419 29.0341C83.3546 29.5682 83.1937 30.0833 82.9361 30.5795C82.6823 31.072 82.3395 31.5133 81.9077 31.9034C81.4796 32.2898 80.9683 32.5966 80.3736 32.8239C79.7827 33.0473 79.1141 33.1591 78.3679 33.1591C77.33 33.1591 76.402 32.9242 75.5838 32.4545C74.7694 31.9848 74.1255 31.3049 73.652 30.4148C73.1823 29.5246 72.9474 28.447 72.9474 27.1818C72.9474 25.9129 73.1861 24.8333 73.6634 23.9432C74.1406 23.053 74.7884 22.375 75.6065 21.9091C76.4247 21.4394 77.3452 21.2045 78.3679 21.2045C79.0421 21.2045 79.6671 21.2992 80.2429 21.4886C80.8224 21.678 81.3357 21.9545 81.7827 22.3182C82.2296 22.678 82.5933 23.1193 82.8736 23.642C83.1577 24.1648 83.3395 24.7633 83.419 25.4375ZM95.8764 27.1818C95.8764 28.4508 95.6359 29.5303 95.1548 30.4205C94.6776 31.3106 94.026 31.9905 93.2003 32.4602C92.3783 32.9261 91.4541 33.1591 90.4276 33.1591C89.3935 33.1591 88.4654 32.9242 87.6435 32.4545C86.8215 31.9848 86.1719 31.3049 85.6946 30.4148C85.2173 29.5246 84.9787 28.447 84.9787 27.1818C84.9787 25.9129 85.2173 24.8333 85.6946 23.9432C86.1719 23.053 86.8215 22.375 87.6435 21.9091C88.4654 21.4394 89.3935 21.2045 90.4276 21.2045C91.4541 21.2045 92.3783 21.4394 93.2003 21.9091C94.026 22.375 94.6776 23.053 95.1548 23.9432C95.6359 24.8333 95.8764 25.9129 95.8764 27.1818ZM93.3821 27.1818C93.3821 26.3598 93.259 25.6667 93.0128 25.1023C92.7704 24.5379 92.4276 24.1098 91.9844 23.8182C91.5412 23.5265 91.0223 23.3807 90.4276 23.3807C89.8329 23.3807 89.3139 23.5265 88.8707 23.8182C88.4276 24.1098 88.0829 24.5379 87.8366 25.1023C87.5942 25.6667 87.473 26.3598 87.473 27.1818C87.473 28.0038 87.5942 28.697 87.8366 29.2614C88.0829 29.8258 88.4276 30.2538 88.8707 30.5455C89.3139 30.8371 89.8329 30.983 90.4276 30.983C91.0223 30.983 91.5412 30.8371 91.9844 30.5455C92.4276 30.2538 92.7704 29.8258 93.0128 29.2614C93.259 28.697 93.3821 28.0038 93.3821 27.1818ZM97.6989 33V21.3636H105.54V23.392H100.159V26.1648H105.136V28.1932H100.159V30.9716H105.562V33H97.6989ZM114.683 21.3636H117.143V28.9205C117.143 29.7689 116.941 30.5114 116.536 31.1477C116.134 31.7841 115.571 32.2803 114.848 32.6364C114.125 32.9886 113.282 33.1648 112.32 33.1648C111.354 33.1648 110.509 32.9886 109.786 32.6364C109.062 32.2803 108.5 31.7841 108.098 31.1477C107.696 30.5114 107.496 29.7689 107.496 28.9205V21.3636H109.956V28.7102C109.956 29.1534 110.053 29.5473 110.246 29.892C110.443 30.2367 110.719 30.5076 111.075 30.7045C111.431 30.9015 111.846 31 112.32 31C112.797 31 113.212 30.9015 113.564 30.7045C113.92 30.5076 114.195 30.2367 114.388 29.892C114.585 29.5473 114.683 29.1534 114.683 28.7102V21.3636ZM119.168 33V21.3636H123.759C124.637 21.3636 125.387 21.5208 126.009 21.8352C126.634 22.1458 127.109 22.5871 127.435 23.1591C127.764 23.7273 127.929 24.3958 127.929 25.1648C127.929 25.9375 127.762 26.6023 127.429 27.1591C127.096 27.7121 126.613 28.1364 125.98 28.4318C125.351 28.7273 124.59 28.875 123.696 28.875H120.622V26.8977H123.298C123.768 26.8977 124.158 26.8333 124.469 26.7045C124.779 26.5758 125.01 26.3826 125.162 26.125C125.317 25.8674 125.395 25.5473 125.395 25.1648C125.395 24.7784 125.317 24.4527 125.162 24.1875C125.01 23.9223 124.777 23.7216 124.463 23.5852C124.152 23.4451 123.76 23.375 123.287 23.375H121.628V33H119.168ZM125.452 27.7045L128.344 33H125.628L122.798 27.7045H125.452Z" fill="#EC4186"/>
</svg>
